<svg xmlns="http://www.w3.org/2000/svg" width="1440" height="620" viewBox="0 0 1440 620" role="img" aria-labelledby="title description">
  <title id="title">Ari agent action flow</title>
  <desc id="description">A visual explanation of Ari validating a natural-language request, creating a CRM group, and confirming a verified result.</desc>
  <defs>
    <linearGradient id="bg" x1="0" x2="1"><stop stop-color="#0a0a0a"/><stop offset="1" stop-color="#272622"/></linearGradient>
    <linearGradient id="button" x1="0" x2="1"><stop stop-color="#f7dd2a"/><stop offset="1" stop-color="#dec51f"/></linearGradient>
    <filter id="s" x="-20%" y="-20%" width="140%" height="150%"><feDropShadow dx="0" dy="14" stdDeviation="16" flood-color="#10081c" flood-opacity=".28"/></filter>
    <style>.t{font-family:Inter,ui-sans-serif,system-ui,sans-serif;fill:#171717}.w{font-family:Inter,ui-sans-serif,system-ui,sans-serif;fill:#fff}.m{font-family:Inter,ui-sans-serif,system-ui,sans-serif;fill:#deddd8}.h{font-size:25px;font-weight:700}.b{font-size:18px}.s{font-size:14px;font-weight:700;letter-spacing:1.2px}</style>
  </defs>
  <rect width="1440" height="620" rx="32" fill="url(#bg)"/>
  <circle cx="1240" cy="76" r="180" fill="#f7dd2a" opacity=".20"/>
  <text x="82" y="92" class="m s">THE ARI EXECUTION LOOP</text>
  <text x="82" y="140" class="w" font-family="Inter, sans-serif" font-size="38" font-weight="700">From natural language to verified product state</text>
  <text x="82" y="174" class="m b">Ari uses the model to plan work; validated services own the real-world action.</text>
  <g filter="url(#s)">
    <rect x="82" y="232" width="284" height="276" rx="22" fill="#fff"/>
    <rect x="398" y="232" width="284" height="276" rx="22" fill="#fffdf3"/>
    <rect x="714" y="232" width="284" height="276" rx="22" fill="#fffaf0"/>
    <rect x="1030" y="232" width="328" height="276" rx="22" fill="#eef9f2"/>
  </g>
  <text x="112" y="284" class="t s">1 · ASK NATURALLY</text>
  <text x="112" y="330" class="t h">“Group these leads</text>
  <text x="112" y="360" class="t h">by segment.”</text>
  <text x="112" y="410" class="t b">Ari keeps the active</text>
  <text x="112" y="436" class="t b">session and attachments</text>
  <text x="112" y="462" class="t b">in context.</text>
  <path d="M370 370h22" stroke="#f7dd2a" stroke-width="4" stroke-linecap="round"/><path d="M383 360l10 10-10 10" fill="none" stroke="#f7dd2a" stroke-width="4" stroke-linecap="round" stroke-linejoin="round"/>
  <text x="428" y="284" class="t s">2 · PLAN &amp; VALIDATE</text>
  <text x="428" y="330" class="t h">Typed tool call</text>
  <rect x="428" y="354" width="220" height="42" rx="10" fill="#f4f0cf"/>
  <text x="446" y="381" class="t" font-family="Inter, sans-serif" font-size="16" font-weight="700">create_contact_group</text>
  <text x="428" y="426" class="t b">Schema, session, tenant,</text>
  <text x="428" y="452" class="t b">policy, and tool budget</text>
  <text x="428" y="478" class="t b">are checked first.</text>
  <path d="M686 370h22" stroke="#f7dd2a" stroke-width="4" stroke-linecap="round"/><path d="M699 360l10 10-10 10" fill="none" stroke="#f7dd2a" stroke-width="4" stroke-linecap="round" stroke-linejoin="round"/>
  <text x="744" y="284" class="t s">3 · EXECUTE SAFELY</text>
  <text x="744" y="330" class="t h">CRM service writes</text>
  <text x="744" y="360" class="t h">verified changes</text>
  <text x="744" y="410" class="t b">Idempotency journals</text>
  <text x="744" y="436" class="t b">prevent duplicate work.</text>
  <rect x="744" y="458" width="174" height="30" rx="15" fill="#f7dd2a"/>
  <text x="764" y="479" class="t" font-family="Inter, sans-serif" font-size="13" font-weight="700">approval when needed</text>
  <path d="M1002 370h22" stroke="#f7dd2a" stroke-width="4" stroke-linecap="round"/><path d="M1015 360l10 10-10 10" fill="none" stroke="#f7dd2a" stroke-width="4" stroke-linecap="round" stroke-linejoin="round"/>
  <text x="1060" y="284" class="t s">4 · SHOW THE RESULT</text>
  <text x="1060" y="330" class="t h">12 groups created</text>
  <text x="1060" y="360" class="t h">and visible in CRM</text>
  <circle cx="1080" cy="424" r="12" fill="#44a66e"/>
  <path d="M1074 424l4 4 8-9" fill="none" stroke="#fff" stroke-width="3" stroke-linecap="round" stroke-linejoin="round"/>
  <text x="1104" y="430" class="t b">Verified tool outcome</text>
  <rect x="1060" y="458" width="192" height="34" rx="17" fill="url(#button)"/>
  <text x="1082" y="481" class="t" font-family="Inter, sans-serif" font-size="14" font-weight="700">Open CRM workspace →</text>
</svg>
